/* XPM */
static char *result[] = {
/* columns rows colors chars-per-pixel */
"32 32 6 1 ",
"  c black",
". c #1A1C2C",
"X c #333C57",
"o c #26C6DA",
"O c #80DEEA",
"+ c #EEEEEE",
/* pixels */
"................................",
"..XXXXXXXXXXXXXXXXXXXXXXXXXXXX..",
".XXXXXXXXXXXXXXXXXXXXXXXXXXXXXX.",
".XXXXXXXXXXXXXXXXXXXXXXXXXXXXXX.",
".XXXXXXXXXXXXXXX    XXXXXXXXXXX.",
".XXXXXXXXXXXXX   XXXXXXXXXXXXXX.",
".XXXXXXXXXXXX + XXXXXXXXXXXXXXX.",
".XXXXXXXXXXX  ++ XXXXXXXXXXXXXX.",
".XXXXXXXXXXXXX ++   XXXXXXXXXXX.",
".XXXXXXXXXXXXXX ++++ XXXXXXXXXX.",
".XXXXXXXXXXXX  +++  XXXXXXXXXXX.",
".XXXXXXXXXXX ++++ XXXXXXXXXXXXX.",
".XXXXXXXXXX  ++++ XXXXXXXXXXXXX.",
".XXXXXXXXXXXX ++++  XXXXXXXXXXX.",
".XXXXXXXXXX  +++++++ XXXXXXXXXX.",
".XXXXXXXXX ++++++++++ XXXXXXXXX.",
".XXXXXXXXX +++OOOO+++ XXXXXXXXX.",
".XXXXXXXX +++OOOOOO+++ XXXXXXXX.",
".XXXXXXX +++OOOOOOOO+++ XXXXXXX.",
".XXXXXXX +++OOOooOOO+++ XXXXXXX.",
".XXXXXXX +++OOooooOO+++ XXXXXXX.",
".XXXXXXX +++OOooooOO+++ XXXXXXX.",
".XXXXXXXX +++OOooOO+++ XXXXXXXX.",
".XXXXXXXX +++OOOOOO+++ XXXXXXXX.",
".XXXXXXXXX +++OOOO+++ XXXXXXXXX.",
".XXXXXXXXXX ++++++++ XXXXXXXXXX.",
".XXXXXXXXXXX  ++++  XXXXXXXXXXX.",
".XXXXXXXXXXXXX    XXXXXXXXXXXXX.",
".XXXXXXXXXXXXXXXXXXXXXXXXXXXXXX.",
".XXXXXXXXXXXXXXXXXXXXXXXXXXXXXX.",
"..XXXXXXXXXXXXXXXXXXXXXXXXXXXX..",
"................................"
};
