/* XPM */
static char *_246114286e54d2c837af02844f33f9fKxr2DxI3wU9Utfbh[] = {
/* columns rows colors chars-per-pixel */
"32 32 6 1 ",
"  c black",
". c #1A1C2C",
"X c #333C57",
"o c #1BC8DC",
"O c #82E0EC",
"+ c #EFEFEF",
/* pixels */
"................................",
"..XXXXXXXXXXXXXXXXXXXXXXXXXXXX..",
".XXXXXXXXXXXXXXXXXXXXXXXXXXXXXX.",
".XXXXXXXXXXXXXXXXXXXXXXXXXXXXXX.",
".XXXXXXXXXXX    XXXXXXXXXXXXXXX.",
".XXXXXXXXXXXXXX   XXXXXXXXXXXXX.",
".XXXXXXXXXXXXXXX + XXXXXXXXXXXX.",
".XXXXXXXXXXXXXX ++  XXXXXXXXXXX.",
".XXXXXXXXXXX   ++ XXXXXXXXXXXXX.",
".XXXXXXXXXX ++++ XXXXXXXXXXXXXX.",
".XXXXXXXXXXX  +++  XXXXXXXXXXXX.",
".XXXXXXXXXXXXX ++++ XXXXXXXXXXX.",
".XXXXXXXXXXXXX ++++  XXXXXXXXXX.",
".XXXXXXXXXXX  ++++ XXXXXXXXXXXX.",
".XXXXXXXXXX +++++++  XXXXXXXXXX.",
".XXXXXXXXX ++++++++++ XXXXXXXXX.",
".XXXXXXXXX +++OOOO+++ XXXXXXXXX.",
".XXXXXXXX +++OOOOOO+++ XXXXXXXX.",
".XXXXXXX +++OOOOOOOO+++ XXXXXXX.",
".XXXXXXX +++OOOooOOO+++ XXXXXXX.",
".XXXXXXX +++OOooooOO+++ XXXXXXX.",
".XXXXXXX +++OOooooOO+++ XXXXXXX.",
".XXXXXXXX +++OOooOO+++ XXXXXXXX.",
".XXXXXXXX +++OOOOOO+++ XXXXXXXX.",
".XXXXXXXXX +++OOOO+++ XXXXXXXXX.",
".XXXXXXXXXX ++++++++ XXXXXXXXXX.",
".XXXXXXXXXXX  ++++  XXXXXXXXXXX.",
".XXXXXXXXXXXXX    XXXXXXXXXXXXX.",
".XXXXXXXXXXXXXXXXXXXXXXXXXXXXXX.",
".XXXXXXXXXXXXXXXXXXXXXXXXXXXXXX.",
"..XXXXXXXXXXXXXXXXXXXXXXXXXXXX..",
"................................"
};
