/* XPM */
static char *result[] = {
/* columns rows colors chars-per-pixel */
"32 32 8 1 ",
"  c #1A1B1C",
". c #1A1C2C",
"X c #333C57",
"o c #B0120A",
"O c #DD191D",
"+ c #7B8085",
"@ c #C3CAD1",
"# c white",
/* pixels */
"............        ............",
"..XXXXXXXX            XXXXXXXX..",
".XXXXXXXX    OOOOOOO   XXXXXXXX.",
".XXXXXXX   OOOOOOOOOO   XXXXXXX.",
".XXXXXXX  OOOOOOOOOOOO   XXXXXX.",
".XXXXXXX  OOOOOOOOOOOOO   XXXXX.",
".XXXXXXX  oOOOOO          XXXXX.",
".XXXXXXX  oOOO             XXXX.",
".XXXXXXX  oOO    +@@####@   XXX.",
".XXX      oOO  +++@@@####@   XX.",
".XX      ooOO  ++++@@@@@@@@  XX.",
".XX  OO  ooOO  ++++++++++++  XX.",
".XX  OO  ooOO   ++++++++++   XX.",
".XX  Oo  ooOOO              XXX.",
".XX  oo  ooOOOO            XXXX.",
".XX  oo  ooOOOOOOOOOOOOo  XXXXX.",
".XX  oo  oooOOOOOOOOOOOo  XXXXX.",
".XX  oo  oooOOOOOOOOOOOo  XXXXX.",
".XX  oo  oooOOOOOOOOOOoo  XXXXX.",
".XX  oo  ooooOOOOOOOOOoo  XXXXX.",
".XX  oo  ooooooooooooooo  XXXXX.",
".XX  oo  ooooooooooooooo  XXXXX.",
".XX  oo  ooooooooooooooo  XXXXX.",
".XX  oo  ooooooooooooooo  XXXXX.",
".XX      oooooo       o   XXXXX.",
".XXX     ooooo       oo  XXXXXX.",
".XXXXXX  ooooo  XX  ooo  XXXXXX.",
".XXXXXX   oooo  XX  ooo  XXXXXX.",
".XXXXXXX  oooo  XX  ooo  XXXXXX.",
".XXXXXXX  oooo  XX  ooo  XXXXXX.",
"..XXXXXX        XX       XXXXX..",
"..........     ....     ........"
};
