/* XPM */
static char *result[] = {
/* columns rows colors chars-per-pixel */
"32 32 13 1 ",
"  c #412320",
". c #59302C",
"X c #5C322D",
"o c #6D3B36",
"O c #353E50",
"+ c #434F65",
"@ c #9A544C",
"# c #5A6988",
"$ c #6F7F9F",
"% c gray55",
"& c #8895AF",
"* c gray68",
"= c #A6B0C4",
/* pixels */
"+OOOOOOO+OOOOOOO+OOOOOOO+OOOOOOO",
"+$$$$$$$+$$$$$$$+$$$$$$$+$$$$$$$",
"+$#####$+$#####$+$#####$+$#####$",
"OOOO+OOOOOOO+OOOOOOO+OOOOOOO+OOO",
"$$$$+$$$$$$$+&&&&&&$+$$$$$$$+$$$",
"###$+$#####$+&&&&&&$+$#####$+$##",
"####++#&&&&&+&&&&&&+&&&&&###+###",
"+OOOOOO&&&&&+======+&&&&&OOOOOOO",
"+&&&&&+&&&&&+$$$$$$+&&&&&+&&&&&+",
"+&&&&&+=====+$$$$$$+=====+&&&&&+",
"+&&&&&+$$$$$+$$$$$$+$$$$$+&&&&&+",
"+=====+$$$$$+$$$$$$+$$$$$+=====+",
"+$$$$$+$$$$$        $$$$$+$$$$$+",
"+$$$$$                    $$$$$+",
"+$$$$$                    $$$$$+",
"++++++      . .... .      ++++++",
"+=====... ... .... ... ...=====+",
"+$$$$$... oooXooooXooo ...$$$$$+",
"+$$$$$oooXoooXooooXoooXooo$$$$$+",
"+$$$$$%%*XoooXooooXoooXooo$$$$$+",
"+$$$$$%**XoooXooooXoooXooo$$$$$+",
"++++++oooXoooXooooXoooXooo++++++",
"+=====oooXoooXooooXoooXo*o=====+",
"+$$$$$oooXoooXooooXoooXo*o$$$$$+",
"+$$$$$oooXoooXooooXoooXo*o$$$$$+",
"+$$$$$oooXoooXooooXoooXo*o$$$$$+",
"+$$$$$oooXoooXooooXoooXo*o$$$$$+",
"++++++oooXoooXooooXoooXooo++++++",
"+=====%%*XoooXooooXoooXooo=====+",
"+$$$$$%**XoooXooooXoooXooo$$$$$+",
"+$$$$$oooXoooXooooXoooXooo$$$$$+",
"+$$$$$@@@X@@@X@@@@X@@@X@@@$$$$$+"
};
