/* XPM */
static char *_f63445658f04370c264186fdd5c9a77tRDeIdGHriITZIO8[] = {
/* columns rows colors chars-per-pixel */
"32 32 11 1 ",
"  c black",
". c #0A0605",
"X c #170C0B",
"o c #1A1C2C",
"O c #7E2C2F",
"+ c #333C57",
"@ c #AC3232",
"# c #E59500",
"$ c #999393",
"% c #E0B5A6",
"& c #FFCBB8",
/* pixels */
"oooooooooooooooooooooooooooooooo",
"oo++++++++++++++++++++++++++++oo",
"o++++++++++++++++++++++++++++++o",
"o++++++++++........++++++++++++o",
"o+++++++++.........++++++++++++o",
"o+++++++++.........++++++++++++o",
"o++++++++++..&&&&&&++++++++++++o",
"o++++++++++.%XX&&XX++++++++++++o",
"o+++++++++++%%&&&&&++++++++++++o",
"o+++++++++++%%&&X&&++++++++++++o",
"o+++++++++++%%%&&&&++++++++++++o",
"o+++@@@@OOOO##%&&&##OO@@@@+++++o",
"o+++@@@@OOOO##$$$$##OO@@@@+++++o",
"o+++@@@@OOOO##$$$$##OO@@@@+++++o",
"o+++@@@@OOOOOO$$$$OOOO@@@@+++++o",
"o+++@@@@OOOOOO$$$$OOOO@@@@+++++o",
"o+++@@@@OOOOOO$$$$OOOO@@@@+++++o",
"o+++    OOOOOO$$$$OOOO    +++++o",
"o+++  + OOOOOO$$$$OOOO  + +++++o",
"o+++++++OOOOOO$$$$OOOO+++++++++o",
"o+++++++OOOOOO$$$$OOOO+++++++++o",
"o+++++++OOOOOO$$$$OOOO+++++++++o",
"o+++++++OOOOOO$$$$OOOO+++++++++o",
"o+++++++OOOOOO$$$$OOOO+++++++++o",
"o+++++++##############+++++++++o",
"o+++++++##############+++++++++o",
"o+++++++@@@@++++++@@@@+++++++++o",
"o+++++++@@@@++++++@@@@+++++++++o",
"o+++++++@@@@++++++@@@@+++++++++o",
"o+++++++@@@@++++++@@@@+++++++++o",
"oo++++++    ++++++    ++++++++oo",
"oooooooo    oooooo    oooooooooo"
};
