/* XPM */
static char *_00b892994124a6db8ba061a5ad805d3O1CCptHzWxGO6oiA[] = {
/* columns rows colors chars-per-pixel */
"32 32 4 1 ",
"  c #353E50",
". c #434F65",
"X c #5A6988",
"o c #6F7F9F",
/* pixels */
".       .       .       .       ",
".ooooooo.ooooooo.ooooooo.ooooooo",
".oXXXXXo.oXXXXXo.oXXXXXo.oXXXXXo",
"    .       .       .       .   ",
"oooo.ooooooo.ooooooo.ooooooo.ooo",
"XXXo.oXXXXXo.oXXXXXo.oXXXXXo.oXX",
"XXXX..XXXXXX.XXXXXXX..XXXXXX.XXX",
".       .       .       .       ",
".ooooooo.ooooooo.ooooooo.ooooooo",
".oXXXXXo.oXXXXXo.oXXXXXo.oXXXXXo",
".XX.XXXX.XXXXXXX.XX.XXXX.XXXXXXX",
"    .       .       .       .   ",
"oooo.ooooooo.ooooooo.ooooooo.ooo",
"XXXo.oXXXXXo.oXXXXXo.oXXXXXo.oXX",
"XXXX.XXXXXXX.XXXXXXX.XXXXXXX.XXX",
"................................",
".       .       .       .       ",
".ooooooo.ooooooo.ooooooo.ooooooo",
".oXXXXXo.oXXXXXo.oXXXXXo.oXXXXXo",
"    .       .       .       .   ",
"oooo.ooooooo.ooooooo.ooooooo.ooo",
"XXXo.oXXXXXo.oXXXXXo.oXXXXXo.oXX",
"XXXX..XXXXXX.XXXXXXX..XXXXXX.XXX",
".       .       .       .       ",
".ooooooo.ooooooo.ooooooo.ooooooo",
".oXXXXXo.oXXXXXo.oXXXXXo.oXXXXXo",
".XX.XXXX.XXXXXXX.XX.XXXX.XXXXXXX",
"    .       .       .       .   ",
"oooo.ooooooo.ooooooo.ooooooo.ooo",
"XXXo.oXXXXXo.oXXXXXo.oXXXXXo.oXX",
"XXXX.XXXXXXX.XXXXXXX.XXXXXXX.XXX",
"................................"
};
